<svg xmlns="http://www.w3.org/2000/svg" width="760" height="1080" viewBox="0 0 760 1080">
  <g fill="none" stroke-linecap="round" stroke-linejoin="round">
    <g stroke="#315541" opacity=".32">
      <path d="M-25 172C78 154 131 83 176-14" stroke-width="3"/>
      <path d="M28 155l-1-43m20 31 10-52m10 38 22-57m0 34 34-54m-5 31 42-44" stroke-width="2"/>
      <path d="M785 760c-114-12-169-83-216-180" stroke-width="3"/>
      <path d="M724 739l7-47m-30 30-6-54m-19 35-18-59m-7 35-31-55m3 31-41-49" stroke-width="2"/>
    </g>
    <g stroke="#6d846d" opacity=".24">
      <path d="M616 78c-21 76-84 120-157 148" stroke-width="2.5"/>
      <path d="M592 114l-38-22m22 42-47-16m29 35-53-5m32 25-54 10" stroke-width="2"/>
      <path d="M125 865c31-68 92-102 164-122" stroke-width="2.5"/>
      <path d="M151 833l34 27m-18-44 45 21m-25-39 52 12m-29-30 55 0" stroke-width="2"/>
    </g>
    <g stroke="#a78343" opacity=".32">
      <path d="M655 279c26 27 26 66 1 92-26-28-27-66-1-92Z"/>
      <path d="m645 298 20 53m-23-35 19 5m-13 12 18 5"/>
      <path d="M95 574c24 25 24 61 1 85-24-25-25-60-1-85Z"/>
      <path d="m87 591 18 49m-20-32 17 5m-12 11 16 4"/>
    </g>
    <g fill="#b7985a" opacity=".32" stroke="none">
      <circle cx="348" cy="96" r="2.2"/><circle cx="379" cy="121" r="1.5"/><circle cx="701" cy="474" r="2"/>
      <circle cx="54" cy="387" r="1.8"/><circle cx="338" cy="934" r="2.2"/><circle cx="401" cy="900" r="1.4"/>
    </g>
  </g>
</svg>
