<svg xmlns="http://www.w3.org/2000/svg" viewBox="0 0 520 760" fill="none">
  <rect width="520" height="760" fill="#fffdf7"/>
  <defs>
    <g id="fir-a" stroke="currentColor" stroke-linecap="round" stroke-linejoin="round">
      <path d="M0 0C43-22 90-48 143-78" stroke-width="8"/>
      <path d="M18-8 3-52M31-15 13-67M45-22 25-83M60-30 39-97M76-39 55-111M93-49 75-121M111-59 96-130M129-70 120-138" stroke-width="5.2"/>
      <path d="M21-10 34 30M36-18 55 30M51-25 75 26M67-34 95 18M83-43 115 9M100-53 134-5M118-64 151-20" stroke-width="5.2"/>
      <path d="M38-16C59-23 79-34 98-48M57-28C77-36 96-47 116-61M75-39C94-48 112-59 132-72" stroke-width="2.8" opacity=".35"/>
    </g>
    <g id="fir-b" stroke="currentColor" stroke-linecap="round" stroke-linejoin="round">
      <path d="M0 0C30-16 65-34 111-61" stroke-width="7"/>
      <path d="M14-6 2-38M27-13 12-52M41-20 25-65M56-28 41-77M73-38 61-89M91-49 84-97" stroke-width="4.8"/>
      <path d="M16-7 27 27M30-15 47 26M45-23 67 21M61-32 87 13M78-42 105 1M96-53 119-16" stroke-width="4.8"/>
    </g>
    <g id="fir-c" stroke="currentColor" stroke-linecap="round" stroke-linejoin="round">
      <path d="M0 0C20-33 49-71 83-111" stroke-width="7"/>
      <path d="M13-22-22-39M22-35-19-61M32-49-14-82M44-64-4-101M58-82 12-118M72-100 31-132" stroke-width="4.6"/>
      <path d="M14-23 52-23M24-37 71-42M35-52 88-61M47-68 103-82M61-86 113-104M75-106 122-126" stroke-width="4.6"/>
    </g>
  </defs>
  <g color="#879763" opacity=".92">
    <use href="#fir-a" x="4" y="54" transform="rotate(12 4 54) scale(1.08)"/>
    <use href="#fir-b" x="226" y="42" transform="rotate(84 226 42) scale(1.18)"/>
    <use href="#fir-a" x="430" y="24" transform="rotate(156 430 24) scale(.98)"/>
    <use href="#fir-c" x="106" y="168" transform="rotate(-38 106 168) scale(1.03)"/>
    <use href="#fir-a" x="306" y="158" transform="rotate(-73 306 158) scale(1.12)"/>
    <use href="#fir-b" x="514" y="150" transform="rotate(180 514 150) scale(1.18)"/>
    <use href="#fir-b" x="18" y="286" transform="rotate(-156 18 286) scale(1.24)"/>
    <use href="#fir-a" x="196" y="314" transform="rotate(39 196 314) scale(1.2)"/>
    <use href="#fir-c" x="390" y="296" transform="rotate(122 390 296) scale(1.1)"/>
    <use href="#fir-a" x="514" y="372" transform="rotate(-168 514 372) scale(1.05)"/>
    <use href="#fir-c" x="64" y="456" transform="rotate(133 64 456) scale(1.05)"/>
    <use href="#fir-b" x="242" y="494" transform="rotate(-94 242 494) scale(1.14)"/>
    <use href="#fir-a" x="428" y="510" transform="rotate(24 428 510) scale(1.2)"/>
    <use href="#fir-a" x="112" y="650" transform="rotate(-25 112 650) scale(1.16)"/>
    <use href="#fir-c" x="328" y="668" transform="rotate(82 328 668) scale(1.08)"/>
    <use href="#fir-b" x="514" y="706" transform="rotate(-138 514 706) scale(1.18)"/>
  </g>
  <g color="#a8b47f" opacity=".78">
    <use href="#fir-b" x="174" y="100" transform="rotate(-18 174 100) scale(.76)"/>
    <use href="#fir-c" x="462" y="230" transform="rotate(-32 462 230) scale(.72)"/>
    <use href="#fir-b" x="110" y="364" transform="rotate(72 110 364) scale(.72)"/>
    <use href="#fir-c" x="282" y="382" transform="rotate(-12 282 382) scale(.76)"/>
    <use href="#fir-b" x="34" y="596" transform="rotate(18 34 596) scale(.74)"/>
    <use href="#fir-c" x="438" y="642" transform="rotate(-4 438 642) scale(.72)"/>
  </g>
</svg>
